<?xml version="1.0" standalone="no"?>
<!DOCTYPE svg PUBLIC "-//W3C//DTD SVG 20010904//EN"
 "http://www.w3.org/TR/2001/REC-SVG-20010904/DTD/svg10.dtd">
<svg version="1.0" xmlns="http://www.w3.org/2000/svg"
 width="408.000000pt" height="316.000000pt" viewBox="0 0 408.000000 316.000000"
 preserveAspectRatio="xMidYMid meet">

<g transform="translate(0.000000,316.000000) scale(0.100000,-0.100000)"
fill="#000000" stroke="none">
<path d="M1815 2910 c-3 -5 -14 -10 -24 -10 -47 0 -151 -83 -167 -133 -12 -39
4 -65 45 -72 39 -6 74 -36 85 -73 4 -11 17 -32 30 -46 12 -15 35 -51 51 -79
15 -29 30 -54 34 -57 10 -9 81 -116 81 -124 0 -4 11 -19 25 -34 14 -15 25 -30
25 -35 0 -4 8 -20 19 -35 10 -15 40 -61 66 -102 26 -41 61 -94 76 -118 16 -23
29 -47 29 -52 0 -6 5 -10 11 -10 13 0 48 -41 49 -57 0 -6 15 -31 33 -55 45
-59 75 -109 79 -133 3 -21 -10 -24 -187 -41 -38 -4 -77 -12 -85 -19 -8 -7 -28
-15 -45 -18 -16 -3 -37 -8 -45 -12 -14 -5 -16 24 -12 264 l4 270 -36 55 c-20
30 -36 57 -36 61 0 4 -9 18 -19 31 -17 22 -20 23 -25 7 -8 -29 -24 -132 -31
-203 -4 -36 -11 -81 -17 -100 -5 -19 -16 -60 -23 -90 -42 -170 -86 -311 -124
-395 -10 -22 -22 -51 -26 -65 -4 -14 -13 -32 -20 -40 -7 -8 -18 -30 -26 -47
-8 -18 -17 -33 -20 -33 -4 0 -12 -13 -19 -29 -6 -16 -20 -37 -31 -46 -16 -16
-23 -16 -64 -4 -25 7 -45 19 -45 26 0 7 -7 13 -15 13 -27 0 -175 94 -175 111
0 5 -6 9 -12 9 -26 1 -228 209 -228 235 0 3 -11 17 -25 31 -14 14 -25 30 -25
35 0 6 -9 24 -21 40 -30 43 -105 196 -124 257 -10 29 -22 55 -27 58 -12 7 -48
-24 -48 -42 0 -7 -14 -28 -30 -46 -16 -18 -30 -43 -30 -56 0 -27 27 -136 40
-160 4 -10 27 -55 49 -102 40 -85 54 -109 101 -185 28 -46 45 -68 78 -102 12
-13 22 -27 22 -31 0 -6 199 -202 237 -233 11 -9 34 -24 51 -35 18 -10 32 -22
32 -26 0 -4 6 -8 13 -8 7 0 24 -11 39 -25 15 -14 32 -25 38 -25 6 0 18 -7 27
-15 13 -14 13 -25 3 -83 -7 -37 -28 -100 -47 -141 -36 -77 -37 -78 -78 -125
-14 -16 -25 -35 -25 -42 0 -7 -8 -19 -18 -26 -10 -7 -23 -21 -28 -31 -24 -44
-295 -327 -313 -327 -5 0 -11 -7 -15 -15 -3 -8 0 -15 7 -15 7 0 24 -6 38 -14
20 -10 95 -14 321 -15 l296 -2 5 23 c3 13 9 48 12 78 16 142 74 307 150 422
38 57 126 159 169 198 16 14 37 32 46 40 27 26 88 70 97 70 4 0 19 9 33 20 14
11 35 20 46 20 12 0 24 7 28 15 3 8 17 15 31 15 14 0 25 4 25 9 0 8 27 15 115
28 22 3 46 10 54 17 23 19 271 21 333 3 29 -9 81 -21 116 -28 34 -7 62 -17 62
-21 0 -4 11 -8 24 -8 13 0 26 -7 30 -15 3 -8 17 -15 31 -15 14 0 25 -4 25 -10
0 -5 5 -10 10 -10 15 0 92 -51 115 -77 11 -13 26 -23 32 -23 6 0 31 -22 56
-50 25 -28 50 -50 56 -50 6 0 11 -6 11 -13 0 -8 9 -22 19 -31 11 -10 25 -31
31 -47 7 -16 18 -29 24 -29 6 0 27 -37 46 -83 19 -45 40 -91 47 -102 17 -29
53 -188 53 -239 0 -24 3 -58 6 -75 5 -26 11 -31 35 -31 22 0 30 6 35 24 7 28
-23 248 -35 256 -5 3 -16 30 -25 60 -28 87 -58 160 -66 160 -5 0 -24 28 -43
62 -35 65 -225 268 -250 268 -7 0 -19 9 -27 20 -8 11 -20 20 -26 20 -7 0 -14
4 -16 8 -4 10 -104 62 -119 62 -7 0 -17 6 -23 14 -6 7 -45 23 -86 35 -41 12
-84 26 -95 30 -74 31 -324 40 -440 17 -119 -25 -240 -62 -265 -81 -8 -6 -31
-18 -50 -25 -19 -8 -37 -16 -40 -19 -9 -10 -44 -31 -62 -37 -10 -4 -18 -10
-18 -15 0 -5 -9 -9 -19 -9 -18 0 -18 4 -9 38 5 20 18 57 28 82 10 25 23 59 29
75 8 21 26 37 59 53 26 12 51 22 55 22 4 0 30 11 59 25 28 14 62 25 74 25 13
0 26 5 29 10 3 6 17 10 31 10 14 0 35 5 47 12 74 39 530 39 569 0 7 -7 27 -12
44 -12 18 0 36 -4 39 -10 3 -5 17 -10 30 -10 13 0 45 -11 72 -24 26 -13 71
-34 98 -48 88 -42 162 -88 200 -123 20 -19 39 -35 42 -35 11 0 131 -128 149
-159 10 -17 23 -31 29 -31 6 0 28 -32 49 -71 21 -39 44 -73 52 -76 8 -3 14
-13 14 -23 0 -11 4 -21 9 -24 4 -3 16 -31 26 -63 10 -32 24 -62 32 -68 12 -9
27 -70 54 -215 4 -25 8 -67 9 -95 0 -65 9 -95 26 -95 23 0 28 28 16 89 -7 31
-19 94 -27 141 -19 102 -64 250 -76 250 -5 0 -9 5 -9 11 0 20 -72 164 -86 172
-8 4 -14 12 -14 18 0 14 -74 129 -83 129 -11 0 -46 42 -47 55 0 6 -10 17 -21
25 -12 8 -44 36 -71 62 -26 26 -62 55 -78 65 -17 9 -30 23 -30 30 0 7 -8 13
-17 13 -10 0 -29 9 -43 20 -14 11 -31 20 -38 20 -7 0 -15 7 -18 15 -4 8 -12
15 -18 15 -18 0 -66 24 -66 33 0 4 -8 7 -19 7 -10 0 -24 7 -31 15 -7 8 -21 15
-32 15 -10 0 -38 10 -61 21 -54 27 -92 36 -262 60 -162 23 -151 22 -280 10
-165 -17 -313 -43 -324 -57 -3 -5 -28 -17 -54 -26 -40 -15 -49 -15 -53 -3 -13
34 1 57 45 72 25 8 54 21 65 28 12 7 75 23 141 34 66 12 134 26 151 31 47 15
125 12 145 -5 15 -14 18 -14 33 0 10 11 23 14 34 10 9 -4 58 -14 107 -21 124
-19 235 -44 235 -54 0 -4 21 -13 48 -20 26 -7 51 -17 57 -21 5 -5 19 -9 32 -9
12 0 26 -6 30 -12 10 -16 49 -38 67 -38 8 0 16 -7 20 -15 3 -8 12 -15 21 -15
8 0 15 -4 15 -8 0 -5 16 -14 35 -22 19 -8 35 -17 35 -21 0 -3 19 -19 42 -35
47 -32 221 -203 253 -248 11 -15 33 -44 49 -64 15 -21 39 -59 53 -87 14 -27
33 -61 42 -75 18 -26 66 -146 77 -193 3 -15 10 -27 14 -27 16 0 60 -237 60
-327 0 -68 7 -83 38 -83 l25 0 -7 117 c-3 64 -10 121 -15 127 -4 6 -14 40 -21
76 -23 111 -68 259 -84 276 -9 8 -16 21 -16 27 0 19 -66 154 -79 162 -6 3 -18
21 -26 38 -25 52 -39 72 -68 99 -15 14 -27 30 -27 35 0 14 -186 202 -235 238
-22 16 -49 38 -60 50 -12 12 -42 32 -68 45 -26 13 -47 26 -47 30 0 3 -28 20
-62 36 -35 16 -65 32 -68 35 -3 4 -27 14 -55 23 -27 10 -66 26 -85 36 -19 10
-48 21 -65 24 -66 11 -115 24 -127 33 -12 10 -95 20 -228 29 -30 2 -56 8 -58
14 -2 6 -14 23 -26 38 -12 15 -35 49 -50 76 -16 26 -35 56 -42 65 -8 9 -31 44
-52 77 -20 34 -57 93 -82 130 -25 38 -49 76 -55 85 -15 26 -89 148 -100 167
-5 9 -44 69 -86 132 -42 63 -79 125 -83 138 -4 12 -11 22 -16 22 -5 0 -12 10
-16 23 -4 12 -17 36 -30 53 -26 34 -31 76 -11 91 6 6 30 16 52 23 22 7 46 19
53 28 20 27 15 68 -13 86 -29 19 -32 19 -40 6z"/>
<path d="M817 2800 c-10 -16 -22 -30 -27 -30 -4 0 -13 -31 -20 -69 -14 -83 -1
-170 36 -243 25 -49 76 -108 94 -108 5 0 10 -4 10 -10 0 -14 66 -12 77 3 23
31 44 125 41 182 -3 57 -4 58 -15 33 -7 -16 -19 -28 -28 -28 -9 0 -15 -9 -15
-22 1 -22 1 -22 15 -4 7 10 18 15 24 11 20 -12 12 -61 -13 -87 -14 -13 -28
-36 -31 -51 -9 -33 -25 -36 -25 -3 0 45 -13 86 -26 86 -19 0 -54 36 -54 56 0
12 6 15 25 10 19 -5 25 -2 25 10 0 10 -6 14 -14 11 -17 -7 -66 36 -66 58 0 8
7 15 15 15 8 0 15 7 15 15 0 8 -6 15 -14 15 -20 0 -39 57 -21 63 7 3 18 0 24
-6 10 -9 11 -5 5 18 -3 17 -11 34 -15 40 -15 15 -10 43 9 54 14 8 14 10 2 11
-9 0 -24 -13 -33 -30z"/>
<path d="M873 2790 c4 -14 7 -31 7 -37 0 -7 9 -13 21 -13 28 0 22 38 -10 59
-24 15 -24 15 -18 -9z"/>
<path d="M950 2723 c0 -12 -4 -23 -9 -25 -13 -5 -24 -48 -12 -48 6 0 11 5 11
10 0 6 9 19 19 29 17 17 18 22 6 38 -14 17 -14 17 -15 -4z"/>
<path d="M980 2660 c0 -19 -7 -44 -15 -54 -8 -11 -15 -27 -14 -35 0 -11 4 -8
11 7 6 12 19 22 30 22 22 0 24 34 3 70 l-14 25 -1 -35z"/>
<path d="M870 2610 c0 -5 7 -10 15 -10 8 0 15 5 15 10 0 6 -7 10 -15 10 -8 0
-15 -4 -15 -10z"/>
<path d="M555 2450 c3 -5 8 -10 11 -10 2 0 4 5 4 10 0 6 -5 10 -11 10 -5 0 -7
-4 -4 -10z"/>
<path d="M500 2421 c0 -11 11 -44 24 -74 32 -69 113 -128 185 -135 30 -2 51 0
55 7 4 6 1 11 -8 11 -8 0 -26 10 -40 23 -13 12 -35 23 -47 24 -13 1 -29 9 -35
18 -6 8 -15 15 -20 15 -16 0 -68 64 -66 81 2 9 -9 24 -23 33 -24 16 -25 16
-25 -3z"/>
<path d="M620 2429 c0 -5 5 -7 10 -4 6 3 10 8 10 11 0 2 -4 4 -10 4 -5 0 -10
-5 -10 -11z"/>
<path d="M750 2273 c0 -5 5 -15 10 -23 8 -12 10 -11 10 8 0 12 -4 22 -10 22
-5 0 -10 -3 -10 -7z"/>
<path d="M290 2256 c0 -15 32 -76 40 -76 13 0 13 27 0 35 -16 10 -12 38 5 32
8 -4 17 -2 20 3 4 6 -9 10 -29 10 -20 0 -36 -2 -36 -4z"/>
<path d="M195 2230 c-11 -4 -30 -10 -42 -15 -27 -9 -28 -15 -8 -41 8 -10 15
-27 15 -37 0 -18 62 -87 79 -87 5 0 11 -4 13 -8 2 -4 30 -21 62 -37 53 -27 68
-30 155 -30 78 1 102 4 126 20 53 34 54 42 20 83 -14 17 -25 35 -25 42 0 16
-29 44 -38 35 -4 -3 1 -11 10 -16 10 -5 14 -17 11 -28 -3 -11 4 -28 16 -40 45
-45 15 -55 -43 -16 -42 29 -56 31 -56 10 0 -17 -42 -30 -66 -21 -21 8 -12 30
14 34 26 4 29 17 6 26 -27 10 -44 7 -44 -9 0 -11 -11 -15 -40 -15 -45 0 -53
14 -14 24 14 4 24 12 21 19 -6 19 -39 21 -49 3 -12 -21 -67 -21 -75 0 -3 9 0
20 7 24 9 5 -2 11 -32 15 -24 4 -51 11 -59 15 -25 16 6 32 55 29 25 -3 46 -1
46 3 0 7 -35 29 -42 27 -2 -1 -12 -4 -23 -9z"/>
<path d="M394 2195 c13 -40 30 -48 20 -9 -4 17 -2 29 7 35 10 6 7 9 -12 9 -25
0 -26 -1 -15 -35z"/>
<path d="M460 2201 c0 -5 7 -12 16 -15 11 -4 13 -13 9 -28 -7 -23 -7 -23 8 -3
10 12 12 24 6 31 -5 6 -6 14 -2 17 3 4 -3 7 -15 7 -12 0 -22 -4 -22 -9z"/>
<path d="M1297 1941 c-40 -26 -67 -57 -67 -79 0 -10 -6 -24 -12 -30 -9 -9 -13
-43 -13 -100 1 -75 5 -96 30 -149 16 -35 33 -63 37 -63 4 0 8 -6 8 -13 0 -17
65 -69 107 -86 46 -19 120 1 150 39 26 32 53 126 53 185 0 46 -20 126 -44 176
-24 52 -78 109 -102 109 -12 0 -27 7 -34 15 -17 20 -78 18 -113 -4z"/>
<path d="M438 1833 c6 -2 18 -2 25 0 6 3 1 5 -13 5 -14 0 -19 -2 -12 -5z"/>
<path d="M580 1790 c0 -6 7 -10 15 -10 8 0 15 2 15 4 0 2 -7 6 -15 10 -8 3
-15 1 -15 -4z"/>
<path d="M296 1774 c-9 -24 -7 -28 9 -14 17 14 20 30 6 30 -5 0 -12 -7 -15
-16z"/>
<path d="M307 1730 l-38 -5 23 -20 c43 -37 70 -45 151 -45 85 0 147 15 147 37
0 7 6 13 14 13 8 0 16 7 20 15 7 20 -63 21 -90 0 -25 -19 -44 -19 -44 0 0 8
-7 15 -15 15 -8 0 -15 -7 -15 -15 0 -9 -9 -15 -21 -15 -15 0 -19 5 -15 15 3 8
2 15 -3 15 -5 0 -14 -7 -21 -15 -15 -18 -29 -19 -44 -2 -7 8 -24 11 -49 7z"/>
<path d="M646 1523 c-11 -11 29 -32 62 -33 25 0 32 -4 32 -20 0 -16 -7 -20
-34 -20 -28 0 -40 -7 -60 -33 -15 -19 -26 -39 -26 -45 0 -7 -9 -12 -21 -12
-18 0 -20 4 -15 26 6 22 4 25 -16 22 -18 -2 -22 -9 -21 -28 3 -32 -33 -78 -49
-62 -8 8 -7 18 6 36 19 29 20 36 6 36 -14 0 -50 -38 -50 -53 0 -7 -10 -21 -21
-31 -18 -15 -23 -15 -30 -5 -5 8 -7 21 -4 29 5 13 4 13 -8 0 -18 -22 -54 -40
-77 -40 -29 0 -25 15 10 40 25 18 28 25 20 41 -16 28 -29 23 -46 -16 -40 -96
0 -124 166 -115 51 2 160 43 168 62 2 4 8 8 13 8 19 0 89 84 99 119 13 47 13
49 -7 70 -18 18 -86 35 -97 24z"/>
<path d="M500 1510 c0 -5 9 -10 20 -10 11 0 29 -9 40 -20 24 -24 30 -25 30 -5
0 8 -5 15 -11 15 -6 0 -9 7 -5 15 4 12 -3 15 -34 15 -22 0 -40 -4 -40 -10z"/>
<path d="M430 1474 l-25 -14 34 0 c20 0 39 -7 47 -17 9 -14 16 -15 24 -6 9 8
7 13 -9 18 -12 3 -21 13 -21 21 0 17 -17 17 -50 -2z"/>
<path d="M365 1430 c-18 -20 -17 -20 13 -20 18 0 32 -4 32 -10 0 -5 7 -10 15
-10 21 0 19 5 -10 35 -31 30 -28 30 -50 5z"/>
<path d="M775 1211 c3 -6 22 -11 41 -11 41 0 42 -6 9 -32 -16 -13 -25 -29 -25
-49 0 -30 -17 -40 -26 -14 -5 11 -10 12 -26 4 -19 -10 -19 -11 -1 -24 17 -13
17 -14 -1 -32 -13 -13 -20 -15 -23 -5 -9 22 -21 12 -27 -23 -7 -35 -20 -46
-29 -22 -3 8 -10 5 -22 -10 -9 -13 -23 -23 -31 -23 -8 0 -14 -4 -14 -10 0 -5
20 -10 44 -10 25 0 48 5 51 10 3 6 15 10 26 10 10 0 19 5 19 10 0 6 5 10 12
10 18 0 82 71 102 113 9 21 16 54 14 75 -3 37 -3 37 -51 40 -33 2 -47 0 -42
-7z"/>
<path d="M706 1177 c-17 -18 -18 -20 -2 -14 10 4 22 7 27 7 5 0 9 7 9 15 0 20
-11 18 -34 -8z"/>
<path d="M650 1135 c-7 -9 -11 -18 -8 -20 7 -8 38 5 38 15 0 17 -18 19 -30 5z"/>
<path d="M615 1080 c-4 -6 7 -10 27 -9 27 0 30 2 13 9 -27 12 -33 12 -40 0z"/>
<path d="M2420 1045 c-8 -2 -54 -9 -103 -16 -48 -7 -92 -18 -98 -26 -6 -7 -20
-13 -30 -13 -11 0 -28 -4 -39 -10 -11 -5 -29 -14 -40 -20 -11 -5 -27 -10 -35
-10 -9 0 -18 -6 -21 -13 -3 -8 -20 -20 -39 -27 -19 -8 -35 -17 -35 -21 0 -3
-17 -18 -38 -31 -46 -31 -148 -130 -188 -183 -92 -122 -154 -287 -172 -457 -9
-81 -2 -113 16 -73 7 14 12 43 12 63 1 92 62 271 126 368 19 28 34 54 34 56 0
11 125 133 176 173 29 23 69 50 91 60 21 11 40 23 43 26 3 3 23 12 45 20 22 8
46 20 53 27 7 6 28 12 46 12 17 0 36 4 42 9 32 31 396 31 429 0 5 -5 20 -9 33
-9 13 0 38 -7 55 -16 58 -31 67 -34 82 -34 8 0 15 -4 15 -8 0 -5 20 -19 45
-31 40 -20 105 -67 145 -104 42 -39 107 -115 117 -137 16 -31 36 -63 44 -70
14 -11 48 -90 64 -145 9 -33 22 -71 29 -85 8 -14 17 -59 21 -100 3 -41 11 -81
17 -87 6 -7 26 -13 44 -13 28 0 35 4 40 26 8 30 -14 204 -27 220 -5 6 -20 42
-33 80 -32 94 -47 125 -73 154 -13 14 -23 28 -23 32 0 36 -211 248 -248 248
-6 0 -12 3 -14 8 -6 14 -77 62 -92 62 -9 0 -16 5 -16 10 0 6 -11 10 -25 10
-14 0 -25 5 -25 10 0 6 -11 10 -24 10 -13 0 -29 6 -35 14 -6 7 -33 16 -59 20
-154 21 -193 25 -252 24 -36 0 -72 -2 -80 -3z"/>
<path d="M596 1025 c-8 -23 -8 -35 3 -35 13 0 23 32 13 42 -6 6 -12 3 -16 -7z"/>
<path d="M1040 1030 c-8 -5 -25 -10 -37 -10 -14 0 -23 -6 -23 -15 0 -8 -7 -15
-15 -15 -8 0 -15 -4 -15 -10 0 -5 -7 -10 -15 -10 -8 0 -17 -11 -21 -25 -3 -14
-12 -25 -19 -25 -6 0 -19 -17 -28 -37 -9 -21 -22 -46 -29 -55 -19 -26 0 -34
23 -9 13 14 27 20 39 16 13 -4 22 1 31 17 9 19 9 21 -2 11 -20 -20 -49 -16
-49 7 0 24 34 44 63 36 13 -3 27 2 39 16 22 26 22 28 3 28 -8 0 -15 -7 -15
-15 0 -17 -25 -20 -35 -5 -7 11 18 40 34 40 6 0 11 5 11 10 0 6 13 10 29 10
16 0 34 7 41 15 13 16 50 21 50 6 0 -4 -13 -22 -30 -39 -16 -18 -30 -36 -30
-41 0 -5 -3 -11 -7 -13 -12 -5 -63 -82 -63 -94 0 -6 -9 -20 -20 -32 -12 -12
-16 -23 -10 -27 12 -8 13 -82 1 -89 -5 -3 -11 1 -15 9 -3 8 -9 15 -13 15 -12
0 -33 -50 -33 -77 0 -17 -6 -23 -21 -23 -22 0 -22 5 -3 83 5 20 3 27 -9 27
-18 0 -27 -21 -27 -63 0 -37 9 -54 30 -58 24 -4 100 12 100 22 0 5 5 9 10 9 6
0 16 5 23 10 43 37 55 49 78 80 14 19 31 51 38 70 7 19 18 45 24 58 6 13 11
54 11 92 0 53 -4 74 -18 89 -20 22 -52 27 -76 11z m8 -162 c-2 -18 -7 -33 -13
-33 -5 0 -11 15 -13 33 -3 24 1 32 13 32 12 0 16 -8 13 -32z m-47 -105 c-11
-25 -14 -26 -23 -10 -5 10 -7 30 -3 44 6 24 7 25 22 10 14 -14 15 -20 4 -44z"/>
<path d="M820 763 c0 -14 6 -23 15 -23 8 0 15 4 15 9 0 5 10 11 22 13 39 6 30
23 -12 23 -35 0 -40 -2 -40 -22z"/>
<path d="M2105 770 c11 -5 29 -9 40 -9 17 -1 17 1 5 9 -8 5 -26 9 -40 9 -23 0
-23 -1 -5 -9z"/>
<path d="M2800 770 c0 -5 5 -10 11 -10 5 0 7 5 4 10 -3 6 -8 10 -11 10 -2 0
-4 -4 -4 -10z"/>
<path d="M2860 772 c0 -4 9 -13 20 -20 20 -12 21 -21 19 -243 0 -127 1 -232 4
-235 11 -11 15 72 13 275 l-1 215 -27 7 c-16 4 -28 4 -28 1z"/>
<path d="M2047 763 c-4 -3 -6 -101 -5 -217 l3 -211 2 199 c3 168 6 203 20 218
14 15 14 18 1 18 -8 0 -18 -3 -21 -7z"/>
<path d="M2225 750 c3 -5 26 -10 50 -10 24 0 47 -4 50 -10 3 -5 15 -10 25 -10
28 0 88 -31 95 -48 5 -13 7 -150 5 -381 l0 -64 -42 7 -43 6 40 -18 c22 -11 46
-26 54 -36 13 -15 16 -15 45 7 17 13 42 27 56 31 14 4 48 13 75 21 28 8 66 18
85 23 35 10 34 10 -17 11 -28 1 -53 -3 -55 -9 -4 -12 -135 -47 -143 -38 -4 3
-6 101 -5 218 0 157 4 215 13 225 20 20 74 45 96 45 11 0 23 5 26 10 15 25
-70 0 -123 -37 l-34 -23 -32 23 c-60 43 -241 90 -221 57z"/>
<path d="M2660 750 c-11 -7 -6 -10 20 -10 19 0 42 5 50 10 11 7 6 10 -20 10
-19 0 -42 -5 -50 -10z"/>
<path d="M2131 663 c8 -9 38 -13 98 -13 61 0 93 -4 107 -15 25 -19 54 -19 54
0 0 9 -9 15 -24 15 -12 0 -36 4 -52 9 -16 5 -66 11 -111 14 -68 3 -81 1 -72
-10z"/>
<path d="M2710 668 c-105 -13 -143 -22 -148 -36 -5 -17 38 -15 62 3 13 10 45
15 95 15 42 1 86 6 99 13 22 13 22 13 -10 13 -18 0 -62 -3 -98 -8z"/>
<path d="M1965 410 l0 -259 233 -3 c127 -2 232 0 232 3 0 3 -27 14 -60 24 -33
10 -60 22 -60 27 0 4 -34 8 -75 8 -43 0 -75 4 -75 10 0 13 -67 13 -75 0 -3 -6
-26 -10 -51 -10 l-44 0 0 230 c0 177 -3 230 -12 230 -10 0 -13 -59 -13 -260z"/>
<path d="M2968 443 l-3 -228 -39 -3 c-22 -2 -50 2 -63 9 -18 9 -29 10 -48 1
-14 -7 -57 -12 -94 -12 -52 0 -70 -4 -75 -15 -3 -9 -18 -15 -35 -15 -16 0 -42
-7 -57 -15 -27 -14 -9 -15 203 -15 l232 0 3 243 c3 256 2 277 -13 277 -5 0
-10 -100 -11 -227z"/>
<path d="M2760 603 c-41 -2 -79 -8 -84 -13 -6 -6 -25 -10 -43 -10 -23 0 -33
-5 -33 -15 0 -19 11 -19 52 0 18 8 68 17 111 20 42 4 77 11 77 16 0 5 -1 8 -2
7 -2 -1 -37 -4 -78 -5z"/>
<path d="M2200 585 c52 -7 112 -20 132 -29 21 -9 45 -16 55 -15 14 0 13 2 -4
9 -13 5 -23 14 -23 20 0 5 -18 10 -39 10 -22 0 -43 5 -46 10 -3 6 -43 9 -88 9
l-82 -2 95 -12z"/>
<path d="M2550 540 c0 -13 11 -13 30 0 12 8 11 10 -7 10 -13 0 -23 -4 -23 -10z"/>
<path d="M2130 520 c20 -13 130 -13 130 0 0 6 -31 10 -72 10 -51 0 -68 -3 -58
-10z"/>
<path d="M2715 520 c7 -11 55 -11 100 0 23 6 14 8 -38 9 -43 1 -66 -3 -62 -9z"/>
<path d="M2280 500 c8 -5 27 -10 43 -10 15 0 27 -4 27 -10 0 -5 12 -10 27 -10
26 0 25 1 -12 20 -40 21 -115 29 -85 10z"/>
<path d="M2610 495 c-7 -9 -19 -14 -25 -11 -7 2 -18 0 -26 -5 -10 -6 -7 -9 13
-9 15 0 30 5 33 10 3 6 21 10 40 10 19 0 37 5 40 10 10 17 -61 11 -75 -5z"/>
<path d="M2110 450 c0 -5 17 -10 38 -10 27 0 33 3 22 10 -20 13 -60 13 -60 0z"/>
<path d="M2795 450 c-4 -6 5 -10 19 -10 14 0 26 5 26 10 0 6 -9 10 -19 10 -11
0 -23 -4 -26 -10z"/>
<path d="M2220 431 c0 -7 19 -11 49 -11 27 0 51 -4 53 -8 4 -11 68 -24 68 -14
0 12 -62 32 -119 39 -35 4 -51 2 -51 -6z"/>
<path d="M2675 432 c-22 -1 -49 -7 -60 -12 -11 -5 -29 -10 -39 -12 -11 -2 -21
-9 -23 -15 -3 -9 7 -8 34 4 21 8 63 19 93 22 62 7 57 18 -5 13z"/>
<path d="M2155 370 c22 -5 69 -14 105 -19 36 -6 80 -13 99 -17 22 -4 32 -3 27
4 -7 12 -101 29 -201 36 -58 4 -63 4 -30 -4z"/>
<path d="M2793 373 c9 -2 25 -2 35 0 9 3 1 5 -18 5 -19 0 -27 -2 -17 -5z"/>
<path d="M2620 356 c-56 -14 -70 -23 -69 -44 1 -15 2 -15 6 1 3 11 14 17 34
17 16 0 29 5 29 10 0 6 26 10 59 10 33 0 63 5 66 10 8 13 -67 11 -125 -4z"/>
<path d="M2040 298 c0 -9 5 -20 11 -23 17 -11 20 0 4 21 -13 17 -14 17 -15 2z"/>
<path d="M2182 275 c3 -3 32 -10 64 -15 33 -5 72 -12 88 -16 19 -4 26 -3 22 5
-4 6 -20 11 -36 11 -16 0 -32 5 -35 10 -3 6 -29 10 -57 10 -28 0 -49 -2 -46
-5z"/>
</g>
</svg>
